<?xml version="1.0" encoding="UTF-8"?>
<svg id="Vrstva_1" xmlns="http://www.w3.org/2000/svg" version="1.1" xmlns:xlink="http://www.w3.org/1999/xlink" viewBox="0 0 1920 1080">
  <!-- Generator: Adobe Illustrator 30.4.0, SVG Export Plug-In . SVG Version: 2.1.4 Build 226)  -->
  <defs>
    <style>
      .st0 {
        fill: url(#Obloha);
      }
    </style>
    <linearGradient id="Obloha" x1="960" y1="380.67" x2="960" y2="735.44" gradientUnits="userSpaceOnUse">
      <stop offset="0" stop-color="#cce0f4"/>
      <stop offset=".06" stop-color="#c2dcf2"/>
      <stop offset=".17" stop-color="#a9d2ee"/>
      <stop offset=".31" stop-color="#7fc2e7"/>
      <stop offset=".46" stop-color="#46abdd"/>
      <stop offset=".57" stop-color="#1e9cd7"/>
      <stop offset=".87" stop-color="#0075be"/>
      <stop offset=".99" stop-color="#005b97"/>
    </linearGradient>
  </defs>
  <path class="st0" d="M772.81,567.76h-14.72v-22.69c-8.83,14.1-26.49,25.14-48.81,25.14-33.97,0-59.6-26.86-59.6-61.44s25.63-61.2,59.6-61.2c22.2,0,39.86,10.79,48.81,24.77v-22.32h14.72v117.73ZM664.15,508.77c0,27.1,19.74,47.95,46.11,47.95,27.72,0,48.56-20.85,48.56-47.95s-20.85-47.71-48.56-47.71-46.11,20.85-46.11,47.71ZM788.38,567.76v-161.1h14.72v66.05c8.83-14.1,26.49-25.14,48.81-25.14,33.97,0,59.6,26.86,59.6,61.44s-25.63,61.19-59.6,61.19c-22.2,0-39.86-10.79-48.81-24.77v22.32h-14.72ZM897.03,509.02c0-27.1-19.74-47.95-46.11-47.95-27.72,0-48.56,20.85-48.56,47.95s20.85,47.7,48.56,47.7,46.11-20.85,46.11-47.7ZM983.28,447.58c35.81,0,62.54,26.86,62.54,61.32s-26.73,61.32-62.54,61.32-62.54-26.86-62.54-61.32,26.73-61.32,62.54-61.32ZM983.28,556.72c27.35,0,47.83-20.97,47.83-47.83s-20.48-47.83-47.83-47.83-47.83,20.97-47.83,47.83,20.48,47.83,47.83,47.83ZM1108.84,567.76h-19.13l-49.79-117.73h15.7l43.66,104.24,43.66-104.24h15.7l-49.79,117.73ZM670.48,671.8v29.3h-19.78v-99.46h46.07c20.07,0,36.25,12.67,36.25,35.23,0,21.31-16.19,34.94-36.25,34.94h-26.29ZM670.48,618.77v35.96h24.02c10.47,0,18.16-7.25,18.16-17.87,0-11.57-7.84-18.09-18.16-18.09h-24.02ZM796.23,671.8h-23v29.3h-19.78v-99.46h46.14c20.07,0,36.33,12.74,36.33,35.16,0,14.43-8.06,25.78-19.41,31.27l26.37,32.96h-23.88l-22.78-29.22ZM773.23,618.77v35.96h24.1c10.55,0,18.24-7.25,18.24-17.87,0-11.57-7.84-18.09-18.24-18.09h-24.1ZM927.48,681.61h-46.14l-7.4,19.48h-21.09l40.14-99.46h22.71l40.21,99.46h-21.09l-7.32-19.48ZM886.9,665.87h34.86l-17.36-43.58-17.5,43.58ZM1041.87,661.76h-26.73v-16.7h46.36v48.56c-10.11,5.57-24.76,8.94-37.28,8.94-36.04,0-58.52-21.31-58.52-51.2,0-32.37,25.85-51.12,59.4-51.12,11.28,0,22.41,2.27,32.15,6.74l-1.54,17.65c-4.39-1.98-15.89-6.37-29.52-6.37-23.07,0-39.99,11.5-39.99,33.11,0,20.14,14.94,33.18,37.21,33.18,6.01,0,13.99-.88,18.46-2.93v-19.85ZM1084.35,601.63h19.7v62.84c0,14.21,10.25,20.36,23.66,20.36,14.28,0,23.8-6.74,23.8-20.36v-62.84h19.7v64.16c0,25.93-20.73,36.77-43.51,36.77-24.61,0-43.36-11.72-43.36-36.77v-64.16ZM1272.43,701.09h-74.78v-99.46h73.68v17.14h-53.91v22.92h47.17v17.14h-47.17v25.2h55v17.07ZM1268.12,517.11v-13.25h-71.56v13.25h71.56ZM1249.53,539.19c-8.61,10.76-21.92,17.53-37.45,17.53-27.35,0-47.83-20.97-47.83-47.83s20.48-47.83,47.83-47.83,47.83,20.97,47.83,47.83c0,2.81-.24,5.55-.67,8.21h14.85c.34-2.68.54-5.42.54-8.21,0-34.46-26.73-61.32-62.54-61.32s-62.54,26.86-62.54,61.32,26.73,61.32,62.54,61.32c24.27,0,44.35-12.34,54.79-31.02h-17.34ZM1274.32,380.67h-628.95v11h628.95v-11ZM1274.32,724.44h-628.95v11h628.95v-11Z"/>
</svg>